<svg width="37" height="38" viewBox="0 0 33 40" fill="none" xmlns="http://www.w3.org/2000/svg">
<path d="M31.325 13.6346C30.0534 14.435 29.0001 15.5542 28.2638 16.8872C27.5274 18.2202 27.1319 19.7236 27.1145 21.2566C27.1195 22.9819 27.6166 24.6679 28.5443 26.1056C29.4719 27.5433 30.7894 28.6696 32.3334 29.345C31.7246 31.3646 30.8237 33.2785 29.6608 35.0224C27.9969 37.4853 26.2571 39.948 23.6099 39.948C20.9628 39.948 20.2819 38.3667 17.2312 38.3667C14.2562 38.3667 13.1972 40 10.7768 40C8.35639 40 6.66735 37.7185 4.7259 34.9187C2.16139 30.9965 0.751968 26.3967 0.666748 21.6712C0.666748 13.8938 5.58323 9.77195 10.4238 9.77195C12.9956 9.77195 15.1386 11.5087 16.7523 11.5087C18.2902 11.5087 20.6854 9.66804 23.6099 9.66804C25.1136 9.62814 26.6038 9.96906 27.9491 10.6607C29.2945 11.3524 30.4538 12.3737 31.325 13.6346ZM22.2234 6.37574C23.5125 4.81635 24.2423 2.84932 24.2908 0.803242C24.293 0.533509 24.2676 0.264287 24.2151 0C22.0006 0.222432 19.9529 1.30772 18.4918 3.03325C17.1902 4.5305 16.433 6.445 16.3487 8.45137C16.3497 8.69538 16.3751 8.93863 16.4244 9.1773C16.599 9.21124 16.7762 9.22863 16.9539 9.22926C17.9745 9.14576 18.9679 8.84974 19.8738 8.3592C20.7796 7.86865 21.579 7.19383 22.2234 6.37574Z" fill="#202020"/>
</svg>
