<svg width="37" height="38" viewBox="0 0 37 36" fill="none" xmlns="http://www.w3.org/2000/svg">
<path d="M26.375 4.125H10.625C8.73533 4.125 6.92306 4.87567 5.58686 6.21186C4.25067 7.54806 3.5 9.36033 3.5 11.25V24.75C3.5 25.6857 3.68429 26.6122 4.04236 27.4766C4.40042 28.3411 4.92525 29.1265 5.58686 29.7881C6.92306 31.1243 8.73533 31.875 10.625 31.875H26.375C28.2635 31.871 30.0734 31.1191 31.4088 29.7838C32.7441 28.4484 33.496 26.6385 33.5 24.75V11.25C33.496 9.36155 32.7441 7.55158 31.4088 6.21624C30.0734 4.8809 28.2635 4.12896 26.375 4.125ZM20.9 16.605C20.162 17.0259 19.3271 17.2472 18.4775 17.2472C17.6279 17.2472 16.793 17.0259 16.055 16.605L5.78 10.71C5.91286 9.51795 6.48051 8.41672 7.37438 7.61695C8.26824 6.81718 9.42557 6.375 10.625 6.375H26.375C27.5735 6.37829 28.729 6.8216 29.6222 7.62075C30.5154 8.41991 31.084 9.51924 31.22 10.71L20.9 16.605Z" fill="#202020"/>
</svg>
