<svg width="37" height="38" viewBox="0 0 36 35" fill="none" xmlns="http://www.w3.org/2000/svg">
<path d="M33.0924 18.1791C33.0924 17.0633 32.9922 15.9904 32.8063 14.9604H17.9863V21.0544H26.4549C26.0829 23.0141 24.9671 24.6735 23.2935 25.7893V29.7518H28.4003C31.3758 27.0052 33.0924 22.9712 33.0924 18.1791Z" fill="#4285F4"/>
<path d="M17.985 33.5551C22.2335 33.5551 25.7955 32.1533 28.399 29.75L23.2921 25.7875C21.8902 26.7317 20.1021 27.3039 17.985 27.3039C13.8937 27.3039 10.4176 24.543 9.17311 20.8237H3.9375V24.8863C6.5267 30.0218 11.8338 33.5551 17.985 33.5551Z" fill="#34A853"/>
<path d="M9.1736 20.8111C8.85889 19.867 8.67292 18.8656 8.67292 17.8214C8.67292 16.7771 8.85889 15.7758 9.1736 14.8316V10.769H3.93798C2.86511 12.8862 2.25 15.2751 2.25 17.8214C2.25 20.3677 2.86511 22.7566 3.93798 24.8737L8.0149 21.698L9.1736 20.8111Z" fill="#FBBC05"/>
<path d="M17.985 8.35102C20.3024 8.35102 22.3623 9.1521 24.0074 10.697L28.5134 6.19097C25.7812 3.64469 22.2335 2.08545 17.985 2.08545C11.8338 2.08545 6.5267 5.61877 3.9375 10.7686L9.17311 14.8312C10.4176 11.1119 13.8937 8.35102 17.985 8.35102Z" fill="#EA4335"/>
</svg>
