<svg width="65" height="66" viewBox="0 0 65 66" fill="none" xmlns="http://www.w3.org/2000/svg">
<g id="ep:location-filled">
<path id="Vector" d="M32.5 59.4062C34.0194 59.4062 39.9588 55.0675 44.6916 49.6847C51.0006 42.5144 54.8438 34.5112 54.8438 26.9062C54.8438 14.8691 44.9516 6.59375 32.5 6.59375C20.0484 6.59375 10.1562 14.8691 10.1562 26.9062C10.1562 34.5438 13.9994 42.5469 20.3084 49.7091C25.0372 55.0797 30.9766 59.4062 32.5 59.4062ZM32.5 31.7812C33.5774 31.7812 34.6108 31.3532 35.3726 30.5914C36.1345 29.8295 36.5625 28.7962 36.5625 27.7188C36.5625 26.6413 36.1345 25.608 35.3726 24.8461C34.6108 24.0843 33.5774 23.6562 32.5 23.6562C31.4226 23.6562 30.3892 24.0843 29.6274 24.8461C28.8655 25.608 28.4375 26.6413 28.4375 27.7188C28.4375 28.7962 28.8655 29.8295 29.6274 30.5914C30.3892 31.3532 31.4226 31.7812 32.5 31.7812ZM32.5 40.7188C29.0522 40.7188 25.7456 39.3491 23.3076 36.9111C20.8696 34.4732 19.5 31.1666 19.5 27.7188C19.5 24.2709 20.8696 20.9643 23.3076 18.5264C25.7456 16.0884 29.0522 14.7188 32.5 14.7188C35.9478 14.7188 39.2544 16.0884 41.6924 18.5264C44.1304 20.9643 45.5 24.2709 45.5 27.7188C45.5 31.1666 44.1304 34.4732 41.6924 36.9111C39.2544 39.3491 35.9478 40.7188 32.5 40.7188Z" fill="#551895"/>
</g>
</svg>
