<svg width="92" height="95" viewBox="0 0 92 95" fill="none" xmlns="http://www.w3.org/2000/svg">
<path d="M43.7249 0.891815C62.2054 -0.256237 80.6111 11.1653 87.8836 28.2466C94.5175 42.6428 93.04 60.4322 84.1244 73.5141C77.6748 83.2591 67.4634 90.4157 56.0818 92.9961C38.8597 97.1913 19.6819 90.0268 9.28081 75.6493C-1.26457 61.9692 -2.86762 42.2726 4.69877 26.833C11.8991 12.0612 27.2536 1.50339 43.7249 0.891815ZM34.7238 24.8721C29.5246 30.0974 29.3162 39.5259 34.828 44.6197C40.3532 49.7457 47.4467 52.817 53.1402 57.7445C55.8279 60.2123 56.7257 64.6623 54.7245 67.8141C51.7936 71.8913 45.2746 72.3419 41.478 69.2599C38.6994 66.9853 38.1116 62.6559 40.1047 59.6812C40.965 58.2676 39.0013 57.5863 38.1918 56.8057C36.8105 56.0734 35.6563 54.075 33.933 54.6061C29.2307 59.7697 29.8613 68.6725 34.82 73.4497C41.144 79.4931 51.9245 79.7292 58.6787 74.2866C63.8378 70.5126 65.163 62.9081 62.6676 57.2161C60.8829 53.1899 56.8272 51.044 53.589 48.4394C56.3089 47.4818 58.6279 45.5961 60.2898 43.249C64.6901 37.2808 63.3863 27.8952 57.3295 23.5632C50.7703 18.5015 40.7005 19.2526 34.7238 24.8721ZM22.8613 23.944C19.9518 24.4912 18.9258 28.7347 21.309 30.5319C23.254 32.3237 26.8155 31.224 27.3284 28.5979C28.1781 25.9451 25.5491 23.1876 22.8613 23.944Z" fill="#551895"/>
</svg>
