<svg width="90" height="90" viewBox="0 0 80 82" fill="none" xmlns="http://www.w3.org/2000/svg">
<path id="Vector" d="M38.0265 0.344195C54.0581 -0.651725 70.0248 9.25628 76.3336 24.0741C82.0884 36.5626 80.8067 51.9948 73.0725 63.3431C67.4776 71.7968 58.6193 78.005 48.7459 80.2435C33.806 83.8828 17.1695 77.6676 8.14668 65.1953C-1.0013 53.3281 -2.39192 36.2415 4.17182 22.8478C10.418 10.0335 23.7379 0.874732 38.0265 0.344195ZM30.2182 21.1468C25.7079 25.6797 25.5272 33.8588 30.3086 38.2776C35.1016 42.7243 41.2551 45.3886 46.1941 49.6632C48.5257 51.8039 49.3045 55.6643 47.5685 58.3984C45.026 61.9353 39.3708 62.3263 36.0773 59.6526C33.6669 57.6794 33.157 53.9238 34.886 51.3432C35.6323 50.1169 33.9288 49.5259 33.2266 48.8488C32.0283 48.2135 31.0271 46.48 29.5321 46.9407C25.453 51.42 26 59.143 30.3016 63.2873C35.7876 68.5298 45.1396 68.7346 50.9987 64.0133C55.4742 60.7393 56.6238 54.1425 54.4591 49.2048C52.9108 45.7121 49.3926 43.8505 46.5835 41.5911C48.9429 40.7604 50.9547 39.1246 52.3963 37.0885C56.2136 31.9111 55.0825 23.7693 49.8283 20.0113C44.1383 15.6204 35.4029 16.2719 30.2182 21.1468ZM19.9276 20.3417C17.4036 20.8164 16.5136 24.4976 18.581 26.0566C20.2683 27.611 23.3578 26.657 23.8028 24.3789C24.5398 22.0776 22.2592 19.6855 19.9276 20.3417Z" fill="white"/>
</svg>
